solid Top Arm End
facet normal -0.0 -0.0 1.0
  outer loop
    vertex 0.0 0.0 12.7
    vertex 1.7497782522983125 5.117374297699243 12.7
    vertex 0.0 12.7 12.7
  endloop
endfacet
facet normal -0.0 -0.0 1.0
  outer loop
    vertex 1.7497782522983125 5.117374297699243 12.7
    vertex 0.0 0.0 12.7
    vertex 2.2255540144766113 3.9687499999999982 12.7
  endloop
endfacet
facet normal -0.0 -0.0 1.0
  outer loop
    vertex 2.2255540144766113 3.9687499999999982 12.7
    vertex 0.0 0.0 12.7
    vertex 2.9824039545990675 2.982403954599067 12.7
  endloop
endfacet
facet normal -0.0 -0.0 1.0
  outer loop
    vertex 2.9824039545990675 2.982403954599067 12.7
    vertex 0.0 0.0 12.7
    vertex 3.9687500000000013 2.22555401447661 12.7
  endloop
endfacet
facet normal -0.0 -0.0 1.0
  outer loop
    vertex 3.9687500000000013 2.22555401447661 12.7
    vertex 0.0 0.0 12.7
    vertex 5.117374297699246 1.7497782522983119 12.7
  endloop
endfacet
facet normal -0.0 -0.0 1.0
  outer loop
    vertex 5.117374297699246 1.7497782522983119 12.7
    vertex 0.0 0.0 12.7
    vertex 12.7 0.0 12.7
  endloop
endfacet
facet normal -0.0 -0.0 1.0
  outer loop
    vertex 0.0 12.7 12.7
    vertex 1.7497782522983125 5.117374297699243 12.7
    vertex 1.5875 6.349999999999999 12.7
  endloop
endfacet
facet normal -0.0 -0.0 1.0
  outer loop
    vertex 5.117374297699246 1.7497782522983119 12.7
    vertex 12.7 0.0 12.7
    vertex 6.35 1.5875 12.7
  endloop
endfacet
facet normal -0.0 -0.0 1.0
  outer loop
    vertex 6.35 1.5875 12.7
    vertex 12.7 0.0 12.7
    vertex 7.582625702300756 1.7497782522983125 12.7
  endloop
endfacet
facet normal -0.0 -0.0 1.0
  outer loop
    vertex 7.582625702300756 1.7497782522983125 12.7
    vertex 12.7 0.0 12.7
    vertex 8.73125 2.225554014476611 12.7
  endloop
endfacet
facet normal -0.0 -0.0 1.0
  outer loop
    vertex 8.73125 2.225554014476611 12.7
    vertex 12.7 0.0 12.7
    vertex 9.717596045400933 2.9824039545990675 12.7
  endloop
endfacet
facet normal -0.0 -0.0 1.0
  outer loop
    vertex 9.717596045400933 2.9824039545990675 12.7
    vertex 12.7 0.0 12.7
    vertex 10.474445985523388 3.96875 12.7
  endloop
endfacet
facet normal -0.0 -0.0 1.0
  outer loop
    vertex 10.474445985523388 3.96875 12.7
    vertex 12.7 0.0 12.7
    vertex 10.950221747701688 5.117374297699245 12.7
  endloop
endfacet
facet normal -0.0 -0.0 1.0
  outer loop
    vertex 10.950221747701688 5.117374297699245 12.7
    vertex 12.7 0.0 12.7
    vertex 11.112499999999999 6.35 12.7
  endloop
endfacet
facet normal -0.0 -0.0 1.0
  outer loop
    vertex 0.0 12.7 12.7
    vertex 5.117374297699241 10.950221747701686 12.7
    vertex 12.7 12.7 12.7
  endloop
endfacet
facet normal -0.0 -0.0 1.0
  outer loop
    vertex 5.117374297699241 10.950221747701686 12.7
    vertex 0.0 12.7 12.7
    vertex 3.968749999999998 10.474445985523387 12.7
  endloop
endfacet
facet normal -0.0 -0.0 1.0
  outer loop
    vertex 3.968749999999998 10.474445985523387 12.7
    vertex 0.0 12.7 12.7
    vertex 2.9824039545990653 9.717596045400931 12.7
  endloop
endfacet
facet normal -0.0 -0.0 1.0
  outer loop
    vertex 2.9824039545990653 9.717596045400931 12.7
    vertex 0.0 12.7 12.7
    vertex 2.22555401447661 8.731249999999998 12.7
  endloop
endfacet
facet normal -0.0 -0.0 1.0
  outer loop
    vertex 2.22555401447661 8.731249999999998 12.7
    vertex 0.0 12.7 12.7
    vertex 1.7497782522983119 7.582625702300753 12.7
  endloop
endfacet
facet normal -0.0 -0.0 1.0
  outer loop
    vertex 1.7497782522983119 7.582625702300753 12.7
    vertex 0.0 12.7 12.7
    vertex 1.5875 6.349999999999999 12.7
  endloop
endfacet
facet normal -0.0 -0.0 1.0
  outer loop
    vertex 12.7 12.7 12.7
    vertex 5.117374297699241 10.950221747701686 12.7
    vertex 6.349999999999999 11.112499999999999 12.7
  endloop
endfacet
facet normal -0.0 -0.0 1.0
  outer loop
    vertex 12.7 12.7 12.7
    vertex 6.349999999999999 11.112499999999999 12.7
    vertex 7.582625702300753 10.950221747701688 12.7
  endloop
endfacet
facet normal -0.0 -0.0 1.0
  outer loop
    vertex 12.7 12.7 12.7
    vertex 7.582625702300753 10.950221747701688 12.7
    vertex 8.731249999999998 10.47444598552339 12.7
  endloop
endfacet
facet normal -0.0 -0.0 1.0
  outer loop
    vertex 12.7 12.7 12.7
    vertex 8.731249999999998 10.47444598552339 12.7
    vertex 9.717596045400931 9.717596045400933 12.7
  endloop
endfacet
facet normal -0.0 -0.0 1.0
  outer loop
    vertex 12.7 12.7 12.7
    vertex 9.717596045400931 9.717596045400933 12.7
    vertex 10.474445985523387 8.731250000000003 12.7
  endloop
endfacet
facet normal -0.0 -0.0 1.0
  outer loop
    vertex 12.7 12.7 12.7
    vertex 10.474445985523387 8.731250000000003 12.7
    vertex 10.950221747701686 7.582625702300759 12.7
  endloop
endfacet
facet normal -0.0 -0.0 1.0
  outer loop
    vertex 12.7 12.7 12.7
    vertex 10.950221747701686 7.582625702300759 12.7
    vertex 11.112499999999999 6.35 12.7
  endloop
endfacet
facet normal -0.0 -0.0 1.0
  outer loop
    vertex 12.7 12.7 12.7
    vertex 11.112499999999999 6.35 12.7
    vertex 12.7 0.0 12.7
  endloop
endfacet
facet normal 1.0 0.0 0.0
  outer loop
    vertex 7.9375 3.2071561843937437 5.8992697583858895
    vertex 7.9375 3.402852294751111 7.531078068311409
    vertex 7.9375 3.1975884197796463 6.728055854196992
  endloop
endfacet
facet normal 1.0 0.0 0.0
  outer loop
    vertex 7.9375 3.402852294751111 7.531078068311409
    vertex 7.9375 3.2071561843937437 5.8992697583858895
    vertex 7.9375 3.430903561246432 5.1012001836738445
  endloop
endfacet
facet normal 1.0 0.0 0.0
  outer loop
    vertex 7.9375 3.402852294751111 7.531078068311409
    vertex 7.9375 3.430903561246432 5.1012001836738445
    vertex 7.9375 3.8089594154434248 8.253611763894199
  endloop
endfacet
facet normal 1.0 0.0 0.0
  outer loop
    vertex 7.9375 3.8089594154434248 8.253611763894199
    vertex 7.9375 3.430903561246432 5.1012001836738445
    vertex 7.9375 3.853582536365222 4.388234252705154
  endloop
endfacet
facet normal 1.0 0.0 0.0
  outer loop
    vertex 7.9375 3.8089594154434248 8.253611763894199
    vertex 7.9375 3.853582536365222 4.388234252705154
    vertex 7.9375 4.388234252705153 8.846417463634777
  endloop
endfacet
facet normal 1.0 0.0 0.0
  outer loop
    vertex 7.9375 4.388234252705153 8.846417463634777
    vertex 7.9375 3.853582536365222 4.388234252705154
    vertex 7.9375 4.446388236105801 3.8089594154434248
  endloop
endfacet
facet normal 1.0 0.0 0.0
  outer loop
    vertex 7.9375 4.388234252705153 8.846417463634777
    vertex 7.9375 4.446388236105801 3.8089594154434248
    vertex 7.9375 5.1012001836738445 9.269096438753566
  endloop
endfacet
facet normal 1.0 0.0 0.0
  outer loop
    vertex 7.9375 5.1012001836738445 9.269096438753566
    vertex 7.9375 4.446388236105801 3.8089594154434248
    vertex 7.9375 5.1689219316885895 3.4028522947511113
  endloop
endfacet
facet normal 1.0 0.0 0.0
  outer loop
    vertex 7.9375 5.1012001836738445 9.269096438753566
    vertex 7.9375 5.1689219316885895 3.4028522947511113
    vertex 7.9375 5.899269758385888 9.492843815606255
  endloop
endfacet
facet normal 1.0 0.0 0.0
  outer loop
    vertex 7.9375 5.899269758385888 9.492843815606255
    vertex 7.9375 5.1689219316885895 3.4028522947511113
    vertex 7.9375 5.971944145803007 3.1975884197796463
  endloop
endfacet
facet normal 1.0 0.0 0.0
  outer loop
    vertex 7.9375 5.899269758385888 9.492843815606255
    vertex 7.9375 5.971944145803007 3.1975884197796463
    vertex 7.9375 6.728055854196992 9.502411580220352
  endloop
endfacet
facet normal 1.0 0.0 0.0
  outer loop
    vertex 7.9375 6.728055854196992 9.502411580220352
    vertex 7.9375 5.971944145803007 3.1975884197796463
    vertex 7.9375 6.80073024161411 3.2071561843937437
  endloop
endfacet
facet normal 1.0 0.0 0.0
  outer loop
    vertex 7.9375 6.728055854196992 9.502411580220352
    vertex 7.9375 6.80073024161411 3.2071561843937437
    vertex 7.9375 7.531078068311409 9.29714770524889
  endloop
endfacet
facet normal 1.0 0.0 0.0
  outer loop
    vertex 7.9375 7.531078068311409 9.29714770524889
    vertex 7.9375 6.80073024161411 3.2071561843937437
    vertex 7.9375 7.598799816326155 3.430903561246432
  endloop
endfacet
facet normal 1.0 0.0 0.0
  outer loop
    vertex 7.9375 7.531078068311409 9.29714770524889
    vertex 7.9375 7.598799816326155 3.430903561246432
    vertex 7.9375 8.253611763894199 8.891040584556574
  endloop
endfacet
facet normal 1.0 0.0 0.0
  outer loop
    vertex 7.9375 8.253611763894199 8.891040584556574
    vertex 7.9375 7.598799816326155 3.430903561246432
    vertex 7.9375 8.311765747294846 3.853582536365221
  endloop
endfacet
facet normal 1.0 0.0 0.0
  outer loop
    vertex 7.9375 8.253611763894199 8.891040584556574
    vertex 7.9375 8.311765747294846 3.853582536365221
    vertex 7.9375 8.846417463634777 8.311765747294846
  endloop
endfacet
facet normal 1.0 0.0 0.0
  outer loop
    vertex 7.9375 8.846417463634777 8.311765747294846
    vertex 7.9375 8.311765747294846 3.853582536365221
    vertex 7.9375 8.891040584556574 4.446388236105801
  endloop
endfacet
facet normal 1.0 0.0 0.0
  outer loop
    vertex 7.9375 8.846417463634777 8.311765747294846
    vertex 7.9375 8.891040584556574 4.446388236105801
    vertex 7.9375 9.269096438753566 7.598799816326156
  endloop
endfacet
facet normal 1.0 0.0 0.0
  outer loop
    vertex 7.9375 9.269096438753566 7.598799816326156
    vertex 7.9375 8.891040584556574 4.446388236105801
    vertex 7.9375 9.29714770524889 5.168921931688591
  endloop
endfacet
facet normal 1.0 0.0 0.0
  outer loop
    vertex 7.9375 9.269096438753566 7.598799816326156
    vertex 7.9375 9.29714770524889 5.168921931688591
    vertex 7.9375 9.492843815606257 6.80073024161411
  endloop
endfacet
facet normal 1.0 0.0 0.0
  outer loop
    vertex 7.9375 9.492843815606257 6.80073024161411
    vertex 7.9375 9.29714770524889 5.168921931688591
    vertex 7.9375 9.502411580220352 5.971944145803008
  endloop
endfacet
facet normal -0.0 -0.26995200564016064 0.962873779189596
  outer loop
    vertex 12.7 6.80073024161411 3.2071561843937437
    vertex 7.9375 7.598799816326155 3.430903561246432
    vertex 7.9375 6.80073024161411 3.2071561843937437
  endloop
endfacet
facet normal -0.0 -0.26995200564016064 0.962873779189596
  outer loop
    vertex 7.9375 7.598799816326155 3.430903561246432
    vertex 12.7 6.80073024161411 3.2071561843937437
    vertex 12.7 7.598799816326155 3.430903561246432
  endloop
endfacet
facet normal -0.0 -0.5099636861904685 0.8601959304524925
  outer loop
    vertex 12.7 7.598799816326155 3.430903561246432
    vertex 7.9375 8.311765747294846 3.853582536365221
    vertex 7.9375 7.598799816326155 3.430903561246432
  endloop
endfacet
facet normal -0.0 -0.5099636861904685 0.8601959304524925
  outer loop
    vertex 7.9375 8.311765747294846 3.853582536365221
    vertex 12.7 7.598799816326155 3.430903561246432
    vertex 12.7 8.311765747294846 3.853582536365221
  endloop
endfacet
facet normal -0.0 -0.7152221842817374 0.6988971505960377
  outer loop
    vertex 12.7 8.891040584556574 4.446388236105801
    vertex 7.9375 8.311765747294846 3.853582536365221
    vertex 12.7 8.311765747294846 3.853582536365221
  endloop
endfacet
facet normal -0.0 -0.7152221842817374 0.6988971505960377
  outer loop
    vertex 7.9375 8.311765747294846 3.853582536365221
    vertex 12.7 8.891040584556574 4.446388236105801
    vertex 7.9375 8.891040584556574 4.446388236105801
  endloop
endfacet
facet normal -0.0 -0.8717394724747484 0.48996968490861514
  outer loop
    vertex 12.7 9.29714770524889 5.168921931688591
    vertex 7.9375 8.891040584556574 4.446388236105801
    vertex 12.7 8.891040584556574 4.446388236105801
  endloop
endfacet
facet normal -0.0 -0.8717394724747484 0.48996968490861514
  outer loop
    vertex 7.9375 8.891040584556574 4.446388236105801
    vertex 12.7 9.29714770524889 5.168921931688591
    vertex 7.9375 9.29714770524889 5.168921931688591
  endloop
endfacet
facet normal -0.0 -0.9688491562361985 0.2476515949078595
  outer loop
    vertex 12.7 9.502411580220352 5.971944145803008
    vertex 7.9375 9.29714770524889 5.168921931688591
    vertex 12.7 9.29714770524889 5.168921931688591
  endloop
endfacet
facet normal -0.0 -0.9688491562361985 0.2476515949078595
  outer loop
    vertex 7.9375 9.29714770524889 5.168921931688591
    vertex 12.7 9.502411580220352 5.971944145803008
    vertex 7.9375 9.502411580220352 5.971944145803008
  endloop
endfacet
facet normal -0.0 -0.9999333710990852 -0.011543542022255325
  outer loop
    vertex 12.7 9.492843815606257 6.80073024161411
    vertex 7.9375 9.502411580220352 5.971944145803008
    vertex 12.7 9.502411580220352 5.971944145803008
  endloop
endfacet
facet normal -0.0 -0.9999333710990852 -0.011543542022255325
  outer loop
    vertex 7.9375 9.502411580220352 5.971944145803008
    vertex 12.7 9.492843815606257 6.80073024161411
    vertex 7.9375 9.492843815606257 6.80073024161411
  endloop
endfacet
facet normal -0.0 -0.9628737791895956 -0.2699520056401617
  outer loop
    vertex 12.7 9.269096438753566 7.598799816326156
    vertex 7.9375 9.492843815606257 6.80073024161411
    vertex 12.7 9.492843815606257 6.80073024161411
  endloop
endfacet
facet normal -0.0 -0.9628737791895956 -0.2699520056401617
  outer loop
    vertex 7.9375 9.492843815606257 6.80073024161411
    vertex 12.7 9.269096438753566 7.598799816326156
    vertex 7.9375 9.269096438753566 7.598799816326156
  endloop
endfacet
facet normal -0.0 -0.8601959304524918 -0.5099636861904698
  outer loop
    vertex 12.7 8.846417463634777 8.311765747294846
    vertex 7.9375 9.269096438753566 7.598799816326156
    vertex 12.7 9.269096438753566 7.598799816326156
  endloop
endfacet
facet normal -0.0 -0.8601959304524918 -0.5099636861904698
  outer loop
    vertex 7.9375 9.269096438753566 7.598799816326156
    vertex 12.7 8.846417463634777 8.311765747294846
    vertex 7.9375 8.846417463634777 8.311765747294846
  endloop
endfacet
facet normal -0.0 -0.6988971505960385 -0.7152221842817365
  outer loop
    vertex 12.7 8.846417463634777 8.311765747294846
    vertex 7.9375 8.253611763894199 8.891040584556574
    vertex 7.9375 8.846417463634777 8.311765747294846
  endloop
endfacet
facet normal -0.0 -0.6988971505960385 -0.7152221842817365
  outer loop
    vertex 7.9375 8.253611763894199 8.891040584556574
    vertex 12.7 8.846417463634777 8.311765747294846
    vertex 12.7 8.253611763894199 8.891040584556574
  endloop
endfacet
facet normal -0.0 -0.4899696849086155 -0.8717394724747481
  outer loop
    vertex 12.7 8.253611763894199 8.891040584556574
    vertex 7.9375 7.531078068311409 9.29714770524889
    vertex 7.9375 8.253611763894199 8.891040584556574
  endloop
endfacet
facet normal -0.0 -0.4899696849086155 -0.8717394724747481
  outer loop
    vertex 7.9375 7.531078068311409 9.29714770524889
    vertex 12.7 8.253611763894199 8.891040584556574
    vertex 12.7 7.531078068311409 9.29714770524889
  endloop
endfacet
facet normal -0.0 -0.24765159490785926 -0.9688491562361984
  outer loop
    vertex 12.7 7.531078068311409 9.29714770524889
    vertex 7.9375 6.728055854196992 9.502411580220352
    vertex 7.9375 7.531078068311409 9.29714770524889
  endloop
endfacet
facet normal -0.0 -0.24765159490785926 -0.9688491562361984
  outer loop
    vertex 7.9375 6.728055854196992 9.502411580220352
    vertex 12.7 7.531078068311409 9.29714770524889
    vertex 12.7 6.728055854196992 9.502411580220352
  endloop
endfacet
facet normal -0.0 0.011543542022257006 -0.999933371099085
  outer loop
    vertex 12.7 6.728055854196992 9.502411580220352
    vertex 7.9375 5.899269758385888 9.492843815606255
    vertex 7.9375 6.728055854196992 9.502411580220352
  endloop
endfacet
facet normal -0.0 0.011543542022257006 -0.999933371099085
  outer loop
    vertex 7.9375 5.899269758385888 9.492843815606255
    vertex 12.7 6.728055854196992 9.502411580220352
    vertex 12.7 5.899269758385888 9.492843815606255
  endloop
endfacet
facet normal -0.0 0.26995200564016103 -0.9628737791895958
  outer loop
    vertex 12.7 5.899269758385888 9.492843815606255
    vertex 7.9375 5.1012001836738445 9.269096438753566
    vertex 7.9375 5.899269758385888 9.492843815606255
  endloop
endfacet
facet normal -0.0 0.26995200564016103 -0.9628737791895958
  outer loop
    vertex 7.9375 5.1012001836738445 9.269096438753566
    vertex 12.7 5.899269758385888 9.492843815606255
    vertex 12.7 5.1012001836738445 9.269096438753566
  endloop
endfacet
facet normal -0.0 0.5099636861904692 -0.8601959304524922
  outer loop
    vertex 12.7 5.1012001836738445 9.269096438753566
    vertex 7.9375 4.388234252705153 8.846417463634777
    vertex 7.9375 5.1012001836738445 9.269096438753566
  endloop
endfacet
facet normal -0.0 0.5099636861904692 -0.8601959304524922
  outer loop
    vertex 7.9375 4.388234252705153 8.846417463634777
    vertex 12.7 5.1012001836738445 9.269096438753566
    vertex 12.7 4.388234252705153 8.846417463634777
  endloop
endfacet
facet normal -0.0 0.7152221842817365 -0.6988971505960385
  outer loop
    vertex 7.9375 4.388234252705153 8.846417463634777
    vertex 12.7 3.8089594154434248 8.253611763894199
    vertex 7.9375 3.8089594154434248 8.253611763894199
  endloop
endfacet
facet normal -0.0 0.7152221842817365 -0.6988971505960385
  outer loop
    vertex 12.7 3.8089594154434248 8.253611763894199
    vertex 7.9375 4.388234252705153 8.846417463634777
    vertex 12.7 4.388234252705153 8.846417463634777
  endloop
endfacet
facet normal -0.0 0.8717394724747481 -0.4899696849086155
  outer loop
    vertex 7.9375 3.8089594154434248 8.253611763894199
    vertex 12.7 3.402852294751111 7.531078068311409
    vertex 7.9375 3.402852294751111 7.531078068311409
  endloop
endfacet
facet normal -0.0 0.8717394724747481 -0.4899696849086155
  outer loop
    vertex 12.7 3.402852294751111 7.531078068311409
    vertex 7.9375 3.8089594154434248 8.253611763894199
    vertex 12.7 3.8089594154434248 8.253611763894199
  endloop
endfacet
facet normal -0.0 0.9688491562361984 -0.24765159490785926
  outer loop
    vertex 7.9375 3.402852294751111 7.531078068311409
    vertex 12.7 3.1975884197796463 6.728055854196992
    vertex 7.9375 3.1975884197796463 6.728055854196992
  endloop
endfacet
facet normal -0.0 0.9688491562361984 -0.24765159490785926
  outer loop
    vertex 12.7 3.1975884197796463 6.728055854196992
    vertex 7.9375 3.402852294751111 7.531078068311409
    vertex 12.7 3.402852294751111 7.531078068311409
  endloop
endfacet
facet normal 0.0 0.9999333710990852 0.011543542022256175
  outer loop
    vertex 7.9375 3.1975884197796463 6.728055854196992
    vertex 12.7 3.2071561843937437 5.8992697583858895
    vertex 7.9375 3.2071561843937437 5.8992697583858895
  endloop
endfacet
facet normal 0.0 0.9999333710990852 0.011543542022256175
  outer loop
    vertex 12.7 3.2071561843937437 5.8992697583858895
    vertex 7.9375 3.1975884197796463 6.728055854196992
    vertex 12.7 3.1975884197796463 6.728055854196992
  endloop
endfacet
facet normal 0.0 0.962873779189596 0.26995200564016064
  outer loop
    vertex 7.9375 3.2071561843937437 5.8992697583858895
    vertex 12.7 3.430903561246432 5.1012001836738445
    vertex 7.9375 3.430903561246432 5.1012001836738445
  endloop
endfacet
facet normal 0.0 0.962873779189596 0.26995200564016064
  outer loop
    vertex 12.7 3.430903561246432 5.1012001836738445
    vertex 7.9375 3.2071561843937437 5.8992697583858895
    vertex 12.7 3.2071561843937437 5.8992697583858895
  endloop
endfacet
facet normal 0.0 0.8601959304524921 0.5099636861904696
  outer loop
    vertex 7.9375 3.430903561246432 5.1012001836738445
    vertex 12.7 3.853582536365222 4.388234252705154
    vertex 7.9375 3.853582536365222 4.388234252705154
  endloop
endfacet
facet normal 0.0 0.8601959304524921 0.5099636861904696
  outer loop
    vertex 12.7 3.853582536365222 4.388234252705154
    vertex 7.9375 3.430903561246432 5.1012001836738445
    vertex 12.7 3.430903561246432 5.1012001836738445
  endloop
endfacet
facet normal 0.0 0.6988971505960386 0.7152221842817366
  outer loop
    vertex 12.7 3.853582536365222 4.388234252705154
    vertex 7.9375 4.446388236105801 3.8089594154434248
    vertex 7.9375 3.853582536365222 4.388234252705154
  endloop
endfacet
facet normal 0.0 0.6988971505960386 0.7152221842817366
  outer loop
    vertex 7.9375 4.446388236105801 3.8089594154434248
    vertex 12.7 3.853582536365222 4.388234252705154
    vertex 12.7 4.446388236105801 3.8089594154434248
  endloop
endfacet
facet normal 0.0 0.48996968490861514 0.8717394724747483
  outer loop
    vertex 12.7 4.446388236105801 3.8089594154434248
    vertex 7.9375 5.1689219316885895 3.4028522947511113
    vertex 7.9375 4.446388236105801 3.8089594154434248
  endloop
endfacet
facet normal 0.0 0.48996968490861514 0.8717394724747483
  outer loop
    vertex 7.9375 5.1689219316885895 3.4028522947511113
    vertex 12.7 4.446388236105801 3.8089594154434248
    vertex 12.7 5.1689219316885895 3.4028522947511113
  endloop
endfacet
facet normal 0.0 0.2476515949078601 0.9688491562361984
  outer loop
    vertex 12.7 5.1689219316885895 3.4028522947511113
    vertex 7.9375 5.971944145803007 3.1975884197796463
    vertex 7.9375 5.1689219316885895 3.4028522947511113
  endloop
endfacet
facet normal 0.0 0.2476515949078601 0.9688491562361984
  outer loop
    vertex 7.9375 5.971944145803007 3.1975884197796463
    vertex 12.7 5.1689219316885895 3.4028522947511113
    vertex 12.7 5.971944145803007 3.1975884197796463
  endloop
endfacet
facet normal -0.0 -0.011543542022256166 0.9999333710990852
  outer loop
    vertex 12.7 5.971944145803007 3.1975884197796463
    vertex 7.9375 6.80073024161411 3.2071561843937437
    vertex 7.9375 5.971944145803007 3.1975884197796463
  endloop
endfacet
facet normal -0.0 -0.011543542022256166 0.9999333710990852
  outer loop
    vertex 7.9375 6.80073024161411 3.2071561843937437
    vertex 12.7 5.971944145803007 3.1975884197796463
    vertex 12.7 6.80073024161411 3.2071561843937437
  endloop
endfacet
facet normal 0.0 0.0 -1.0
  outer loop
    vertex 4.816592750766104 6.760875234100252 3.175
    vertex 4.816592750766104 5.939124765899748 3.175
    vertex 4.762499999999999 6.35 3.175
  endloop
endfacet
facet normal 0.0 0.0 -1.0
  outer loop
    vertex 4.816592750766104 5.939124765899748 3.175
    vertex 4.816592750766104 6.760875234100252 3.175
    vertex 4.975184671492204 7.14375 3.175
  endloop
endfacet
facet normal 0.0 0.0 -1.0
  outer loop
    vertex 4.816592750766104 5.939124765899748 3.175
    vertex 4.975184671492204 7.14375 3.175
    vertex 4.975184671492203 5.5562499999999995 3.175
  endloop
endfacet
facet normal 0.0 0.0 -1.0
  outer loop
    vertex 4.975184671492203 5.5562499999999995 3.175
    vertex 4.975184671492204 7.14375 3.175
    vertex 5.227467984866355 5.227467984866355 3.175
  endloop
endfacet
facet normal 0.0 0.0 -1.0
  outer loop
    vertex 5.227467984866355 5.227467984866355 3.175
    vertex 4.975184671492204 7.14375 3.175
    vertex 5.227467984866355 7.472532015133645 3.175
  endloop
endfacet
facet normal 0.0 0.0 -1.0
  outer loop
    vertex 5.227467984866355 5.227467984866355 3.175
    vertex 5.227467984866355 7.472532015133645 3.175
    vertex 5.5562499999999995 7.724815328507796 3.175
  endloop
endfacet
facet normal 0.0 0.0 -1.0
  outer loop
    vertex 5.227467984866355 5.227467984866355 3.175
    vertex 5.5562499999999995 7.724815328507796 3.175
    vertex 5.556249999999999 4.975184671492204 3.175
  endloop
endfacet
facet normal 0.0 0.0 -1.0
  outer loop
    vertex 5.556249999999999 4.975184671492204 3.175
    vertex 5.5562499999999995 7.724815328507796 3.175
    vertex 5.939124765899748 4.816592750766104 3.175
  endloop
endfacet
facet normal 0.0 0.0 -1.0
  outer loop
    vertex 5.939124765899748 4.816592750766104 3.175
    vertex 5.5562499999999995 7.724815328507796 3.175
    vertex 5.939124765899748 7.883407249233896 3.175
  endloop
endfacet
facet normal 0.0 0.0 -1.0
  outer loop
    vertex 5.939124765899748 4.816592750766104 3.175
    vertex 5.939124765899748 7.883407249233896 3.175
    vertex 6.35 4.762499999999999 3.175
  endloop
endfacet
facet normal 0.0 0.0 -1.0
  outer loop
    vertex 6.35 4.762499999999999 3.175
    vertex 5.939124765899748 7.883407249233896 3.175
    vertex 6.35 7.9375 3.175
  endloop
endfacet
facet normal 0.0 0.0 -1.0
  outer loop
    vertex 6.35 4.762499999999999 3.175
    vertex 6.35 7.9375 3.175
    vertex 6.7608752341002525 7.883407249233895 3.175
  endloop
endfacet
facet normal 0.0 0.0 -1.0
  outer loop
    vertex 6.35 4.762499999999999 3.175
    vertex 6.7608752341002525 7.883407249233895 3.175
    vertex 6.760875234100252 4.8165927507661035 3.175
  endloop
endfacet
facet normal 0.0 0.0 -1.0
  outer loop
    vertex 6.760875234100252 4.8165927507661035 3.175
    vertex 6.7608752341002525 7.883407249233895 3.175
    vertex 7.14375 4.975184671492203 3.175
  endloop
endfacet
facet normal 0.0 0.0 -1.0
  outer loop
    vertex 7.14375 4.975184671492203 3.175
    vertex 6.7608752341002525 7.883407249233895 3.175
    vertex 7.14375 7.724815328507796 3.175
  endloop
endfacet
facet normal 0.0 0.0 -1.0
  outer loop
    vertex 7.14375 4.975184671492203 3.175
    vertex 7.14375 7.724815328507796 3.175
    vertex 7.472532015133645 7.472532015133645 3.175
  endloop
endfacet
facet normal 0.0 0.0 -1.0
  outer loop
    vertex 7.14375 4.975184671492203 3.175
    vertex 7.472532015133645 7.472532015133645 3.175
    vertex 7.472532015133643 5.2274679848663546 3.175
  endloop
endfacet
facet normal 0.0 0.0 -1.0
  outer loop
    vertex 7.472532015133643 5.2274679848663546 3.175
    vertex 7.472532015133645 7.472532015133645 3.175
    vertex 7.724815328507796 5.556249999999999 3.175
  endloop
endfacet
facet normal 0.0 0.0 -1.0
  outer loop
    vertex 7.724815328507796 5.556249999999999 3.175
    vertex 7.472532015133645 7.472532015133645 3.175
    vertex 7.7248153285077965 7.143749999999998 3.175
  endloop
endfacet
facet normal 0.0 0.0 -1.0
  outer loop
    vertex 7.724815328507796 5.556249999999999 3.175
    vertex 7.7248153285077965 7.143749999999998 3.175
    vertex 7.883407249233895 5.939124765899747 3.175
  endloop
endfacet
facet normal 0.0 0.0 -1.0
  outer loop
    vertex 7.883407249233895 5.939124765899747 3.175
    vertex 7.7248153285077965 7.143749999999998 3.175
    vertex 7.883407249233896 6.76087523410025 3.175
  endloop
endfacet
facet normal 0.0 0.0 -1.0
  outer loop
    vertex 7.883407249233895 5.939124765899747 3.175
    vertex 7.883407249233896 6.76087523410025 3.175
    vertex 7.9375 6.35 3.175
  endloop
endfacet
facet normal -0.9914448613738103 0.13052619222005318 -0.0
  outer loop
    vertex 7.9375 6.35 3.175
    vertex 7.883407249233895 5.939124765899747 0.0
    vertex 7.883407249233895 5.939124765899747 3.175
  endloop
endfacet
facet normal -0.9914448613738103 0.13052619222005318 -0.0
  outer loop
    vertex 7.883407249233895 5.939124765899747 0.0
    vertex 7.9375 6.35 3.175
    vertex 7.9375 6.35 0.0
  endloop
endfacet
facet normal -0.9238795325112868 0.3826834323650895 -0.0
  outer loop
    vertex 7.883407249233895 5.939124765899747 3.175
    vertex 7.724815328507796 5.556249999999999 0.0
    vertex 7.724815328507796 5.556249999999999 3.175
  endloop
endfacet
facet normal -0.9238795325112868 0.3826834323650895 -0.0
  outer loop
    vertex 7.724815328507796 5.556249999999999 0.0
    vertex 7.883407249233895 5.939124765899747 3.175
    vertex 7.883407249233895 5.939124765899747 0.0
  endloop
endfacet
facet normal -0.7933533402912347 0.6087614290087213 -0.0
  outer loop
    vertex 7.724815328507796 5.556249999999999 3.175
    vertex 7.472532015133643 5.2274679848663546 0.0
    vertex 7.472532015133643 5.2274679848663546 3.175
  endloop
endfacet
facet normal -0.7933533402912347 0.6087614290087213 -0.0
  outer loop
    vertex 7.472532015133643 5.2274679848663546 0.0
    vertex 7.724815328507796 5.556249999999999 3.175
    vertex 7.724815328507796 5.556249999999999 0.0
  endloop
endfacet
facet normal -0.6087614290087211 0.7933533402912348 -0.0
  outer loop
    vertex 7.14375 4.975184671492203 3.175
    vertex 7.472532015133643 5.2274679848663546 0.0
    vertex 7.14375 4.975184671492203 0.0
  endloop
endfacet
facet normal -0.6087614290087211 0.7933533402912348 -0.0
  outer loop
    vertex 7.472532015133643 5.2274679848663546 0.0
    vertex 7.14375 4.975184671492203 3.175
    vertex 7.472532015133643 5.2274679848663546 3.175
  endloop
endfacet
facet normal -0.3826834323650904 0.9238795325112865 -0.0
  outer loop
    vertex 6.760875234100252 4.8165927507661035 3.175
    vertex 7.14375 4.975184671492203 0.0
    vertex 6.760875234100252 4.8165927507661035 0.0
  endloop
endfacet
facet normal -0.3826834323650904 0.9238795325112865 -0.0
  outer loop
    vertex 7.14375 4.975184671492203 0.0
    vertex 6.760875234100252 4.8165927507661035 3.175
    vertex 7.14375 4.975184671492203 3.175
  endloop
endfacet
facet normal -0.13052619222005027 0.9914448613738107 -0.0
  outer loop
    vertex 6.35 4.762499999999999 3.175
    vertex 6.760875234100252 4.8165927507661035 0.0
    vertex 6.35 4.762499999999999 0.0
  endloop
endfacet
facet normal -0.13052619222005027 0.9914448613738107 -0.0
  outer loop
    vertex 6.760875234100252 4.8165927507661035 0.0
    vertex 6.35 4.762499999999999 3.175
    vertex 6.760875234100252 4.8165927507661035 3.175
  endloop
endfacet
facet normal 0.1305261922200517 0.9914448613738105 0.0
  outer loop
    vertex 5.939124765899748 4.816592750766104 3.175
    vertex 6.35 4.762499999999999 0.0
    vertex 5.939124765899748 4.816592750766104 0.0
  endloop
endfacet
facet normal 0.1305261922200517 0.9914448613738105 0.0
  outer loop
    vertex 6.35 4.762499999999999 0.0
    vertex 5.939124765899748 4.816592750766104 3.175
    vertex 6.35 4.762499999999999 3.175
  endloop
endfacet
facet normal 0.3826834323650904 0.9238795325112865 0.0
  outer loop
    vertex 5.556249999999999 4.975184671492204 3.175
    vertex 5.939124765899748 4.816592750766104 0.0
    vertex 5.556249999999999 4.975184671492204 0.0
  endloop
endfacet
facet normal 0.3826834323650904 0.9238795325112865 0.0
  outer loop
    vertex 5.939124765899748 4.816592750766104 0.0
    vertex 5.556249999999999 4.975184671492204 3.175
    vertex 5.939124765899748 4.816592750766104 3.175
  endloop
endfacet
facet normal 0.6087614290087211 0.7933533402912348 0.0
  outer loop
    vertex 5.227467984866355 5.227467984866355 3.175
    vertex 5.556249999999999 4.975184671492204 0.0
    vertex 5.227467984866355 5.227467984866355 0.0
  endloop
endfacet
facet normal 0.6087614290087211 0.7933533402912348 0.0
  outer loop
    vertex 5.556249999999999 4.975184671492204 0.0
    vertex 5.227467984866355 5.227467984866355 3.175
    vertex 5.556249999999999 4.975184671492204 3.175
  endloop
endfacet
facet normal 0.7933533402912347 0.6087614290087213 0.0
  outer loop
    vertex 4.975184671492203 5.5562499999999995 0.0
    vertex 5.227467984866355 5.227467984866355 3.175
    vertex 5.227467984866355 5.227467984866355 0.0
  endloop
endfacet
facet normal 0.7933533402912347 0.6087614290087213 0.0
  outer loop
    vertex 5.227467984866355 5.227467984866355 3.175
    vertex 4.975184671492203 5.5562499999999995 0.0
    vertex 4.975184671492203 5.5562499999999995 3.175
  endloop
endfacet
facet normal 0.9238795325112872 0.38268343236508895 0.0
  outer loop
    vertex 4.816592750766104 5.939124765899748 0.0
    vertex 4.975184671492203 5.5562499999999995 3.175
    vertex 4.975184671492203 5.5562499999999995 0.0
  endloop
endfacet
facet normal 0.9238795325112872 0.38268343236508895 0.0
  outer loop
    vertex 4.975184671492203 5.5562499999999995 3.175
    vertex 4.816592750766104 5.939124765899748 0.0
    vertex 4.816592750766104 5.939124765899748 3.175
  endloop
endfacet
facet normal 0.9914448613738105 0.13052619222005193 0.0
  outer loop
    vertex 4.762499999999999 6.35 0.0
    vertex 4.816592750766104 5.939124765899748 3.175
    vertex 4.816592750766104 5.939124765899748 0.0
  endloop
endfacet
facet normal 0.9914448613738105 0.13052619222005193 0.0
  outer loop
    vertex 4.816592750766104 5.939124765899748 3.175
    vertex 4.762499999999999 6.35 0.0
    vertex 4.762499999999999 6.35 3.175
  endloop
endfacet
facet normal 0.9914448613738105 -0.13052619222005193 -0.0
  outer loop
    vertex 4.816592750766104 6.760875234100252 0.0
    vertex 4.762499999999999 6.35 3.175
    vertex 4.762499999999999 6.35 0.0
  endloop
endfacet
facet normal 0.9914448613738105 -0.13052619222005193 -0.0
  outer loop
    vertex 4.762499999999999 6.35 3.175
    vertex 4.816592750766104 6.760875234100252 0.0
    vertex 4.816592750766104 6.760875234100252 3.175
  endloop
endfacet
facet normal 0.9238795325112865 -0.3826834323650904 -0.0
  outer loop
    vertex 4.975184671492204 7.14375 0.0
    vertex 4.816592750766104 6.760875234100252 3.175
    vertex 4.816592750766104 6.760875234100252 0.0
  endloop
endfacet
facet normal 0.9238795325112865 -0.3826834323650904 -0.0
  outer loop
    vertex 4.816592750766104 6.760875234100252 3.175
    vertex 4.975184671492204 7.14375 0.0
    vertex 4.975184671492204 7.14375 3.175
  endloop
endfacet
facet normal 0.793353340291236 -0.6087614290087194 -0.0
  outer loop
    vertex 5.227467984866355 7.472532015133645 0.0
    vertex 4.975184671492204 7.14375 3.175
    vertex 4.975184671492204 7.14375 0.0
  endloop
endfacet
facet normal 0.793353340291236 -0.6087614290087194 -0.0
  outer loop
    vertex 4.975184671492204 7.14375 3.175
    vertex 5.227467984866355 7.472532015133645 0.0
    vertex 5.227467984866355 7.472532015133645 3.175
  endloop
endfacet
facet normal 0.6087614290087192 -0.7933533402912365 -0.0
  outer loop
    vertex 5.5562499999999995 7.724815328507796 3.175
    vertex 5.227467984866355 7.472532015133645 0.0
    vertex 5.5562499999999995 7.724815328507796 0.0
  endloop
endfacet
facet normal 0.6087614290087192 -0.7933533402912365 -0.0
  outer loop
    vertex 5.227467984866355 7.472532015133645 0.0
    vertex 5.5562499999999995 7.724815328507796 3.175
    vertex 5.227467984866355 7.472532015133645 3.175
  endloop
endfacet
facet normal 0.3826834323650919 -0.9238795325112861 -0.0
  outer loop
    vertex 5.939124765899748 7.883407249233896 3.175
    vertex 5.5562499999999995 7.724815328507796 0.0
    vertex 5.939124765899748 7.883407249233896 0.0
  endloop
endfacet
facet normal 0.3826834323650919 -0.9238795325112861 -0.0
  outer loop
    vertex 5.5562499999999995 7.724815328507796 0.0
    vertex 5.939124765899748 7.883407249233896 3.175
    vertex 5.5562499999999995 7.724815328507796 3.175
  endloop
endfacet
facet normal 0.13052619222005027 -0.9914448613738107 -0.0
  outer loop
    vertex 6.35 7.9375 3.175
    vertex 5.939124765899748 7.883407249233896 0.0
    vertex 6.35 7.9375 0.0
  endloop
endfacet
facet normal 0.13052619222005027 -0.9914448613738107 -0.0
  outer loop
    vertex 5.939124765899748 7.883407249233896 0.0
    vertex 6.35 7.9375 3.175
    vertex 5.939124765899748 7.883407249233896 3.175
  endloop
endfacet
facet normal -0.13052619222005318 -0.9914448613738103 -0.0
  outer loop
    vertex 6.7608752341002525 7.883407249233895 3.175
    vertex 6.35 7.9375 0.0
    vertex 6.7608752341002525 7.883407249233895 0.0
  endloop
endfacet
facet normal -0.13052619222005318 -0.9914448613738103 -0.0
  outer loop
    vertex 6.35 7.9375 0.0
    vertex 6.7608752341002525 7.883407249233895 3.175
    vertex 6.35 7.9375 3.175
  endloop
endfacet
facet normal -0.38268343236509017 -0.9238795325112867 -0.0
  outer loop
    vertex 7.14375 7.724815328507796 3.175
    vertex 6.7608752341002525 7.883407249233895 0.0
    vertex 7.14375 7.724815328507796 0.0
  endloop
endfacet
facet normal -0.38268343236509017 -0.9238795325112867 -0.0
  outer loop
    vertex 6.7608752341002525 7.883407249233895 0.0
    vertex 7.14375 7.724815328507796 3.175
    vertex 6.7608752341002525 7.883407249233895 3.175
  endloop
endfacet
facet normal -0.6087614290087183 -0.7933533402912369 -0.0
  outer loop
    vertex 7.472532015133645 7.472532015133645 3.175
    vertex 7.14375 7.724815328507796 0.0
    vertex 7.472532015133645 7.472532015133645 0.0
  endloop
endfacet
facet normal -0.6087614290087183 -0.7933533402912369 -0.0
  outer loop
    vertex 7.14375 7.724815328507796 0.0
    vertex 7.472532015133645 7.472532015133645 3.175
    vertex 7.14375 7.724815328507796 3.175
  endloop
endfacet
facet normal -0.7933533402912366 -0.6087614290087189 -0.0
  outer loop
    vertex 7.472532015133645 7.472532015133645 3.175
    vertex 7.7248153285077965 7.143749999999998 0.0
    vertex 7.7248153285077965 7.143749999999998 3.175
  endloop
endfacet
facet normal -0.7933533402912366 -0.6087614290087189 -0.0
  outer loop
    vertex 7.7248153285077965 7.143749999999998 0.0
    vertex 7.472532015133645 7.472532015133645 3.175
    vertex 7.472532015133645 7.472532015133645 0.0
  endloop
endfacet
facet normal -0.9238795325112872 -0.38268343236508895 -0.0
  outer loop
    vertex 7.7248153285077965 7.143749999999998 3.175
    vertex 7.883407249233896 6.76087523410025 0.0
    vertex 7.883407249233896 6.76087523410025 3.175
  endloop
endfacet
facet normal -0.9238795325112872 -0.38268343236508895 -0.0
  outer loop
    vertex 7.883407249233896 6.76087523410025 0.0
    vertex 7.7248153285077965 7.143749999999998 3.175
    vertex 7.7248153285077965 7.143749999999998 0.0
  endloop
endfacet
facet normal -0.9914448613738106 -0.1305261922200507 -0.0
  outer loop
    vertex 7.883407249233896 6.76087523410025 3.175
    vertex 7.9375 6.35 0.0
    vertex 7.9375 6.35 3.175
  endloop
endfacet
facet normal -0.9914448613738106 -0.1305261922200507 -0.0
  outer loop
    vertex 7.9375 6.35 0.0
    vertex 7.883407249233896 6.76087523410025 3.175
    vertex 7.883407249233896 6.76087523410025 0.0
  endloop
endfacet
facet normal 0.0 0.0 1.0
  outer loop
    vertex 1.7497782522983125 5.117374297699243 15.875
    vertex 1.7497782522983119 7.582625702300753 15.875
    vertex 1.5875 6.349999999999999 15.875
  endloop
endfacet
facet normal 0.0 0.0 1.0
  outer loop
    vertex 1.7497782522983119 7.582625702300753 15.875
    vertex 1.7497782522983125 5.117374297699243 15.875
    vertex 2.22555401447661 8.731249999999998 15.875
  endloop
endfacet
facet normal 0.0 0.0 1.0
  outer loop
    vertex 2.22555401447661 8.731249999999998 15.875
    vertex 1.7497782522983125 5.117374297699243 15.875
    vertex 2.2255540144766113 3.9687499999999982 15.875
  endloop
endfacet
facet normal 0.0 0.0 1.0
  outer loop
    vertex 2.22555401447661 8.731249999999998 15.875
    vertex 2.2255540144766113 3.9687499999999982 15.875
    vertex 2.9824039545990653 9.717596045400931 15.875
  endloop
endfacet
facet normal 0.0 0.0 1.0
  outer loop
    vertex 2.9824039545990653 9.717596045400931 15.875
    vertex 2.2255540144766113 3.9687499999999982 15.875
    vertex 2.9824039545990675 2.982403954599067 15.875
  endloop
endfacet
facet normal 0.0 0.0 1.0
  outer loop
    vertex 2.9824039545990653 9.717596045400931 15.875
    vertex 2.9824039545990675 2.982403954599067 15.875
    vertex 3.968749999999998 10.474445985523387 15.875
  endloop
endfacet
facet normal 0.0 0.0 1.0
  outer loop
    vertex 3.968749999999998 10.474445985523387 15.875
    vertex 2.9824039545990675 2.982403954599067 15.875
    vertex 3.9687500000000013 2.22555401447661 15.875
  endloop
endfacet
facet normal 0.0 0.0 1.0
  outer loop
    vertex 3.968749999999998 10.474445985523387 15.875
    vertex 3.9687500000000013 2.22555401447661 15.875
    vertex 5.117374297699241 10.950221747701686 15.875
  endloop
endfacet
facet normal 0.0 0.0 1.0
  outer loop
    vertex 5.117374297699241 10.950221747701686 15.875
    vertex 3.9687500000000013 2.22555401447661 15.875
    vertex 5.117374297699246 1.7497782522983119 15.875
  endloop
endfacet
facet normal 0.0 0.0 1.0
  outer loop
    vertex 5.117374297699241 10.950221747701686 15.875
    vertex 5.117374297699246 1.7497782522983119 15.875
    vertex 6.349999999999999 11.112499999999999 15.875
  endloop
endfacet
facet normal 0.0 0.0 1.0
  outer loop
    vertex 6.349999999999999 11.112499999999999 15.875
    vertex 5.117374297699246 1.7497782522983119 15.875
    vertex 6.35 1.5875 15.875
  endloop
endfacet
facet normal 0.0 0.0 1.0
  outer loop
    vertex 6.349999999999999 11.112499999999999 15.875
    vertex 6.35 1.5875 15.875
    vertex 7.582625702300753 10.950221747701688 15.875
  endloop
endfacet
facet normal 0.0 0.0 1.0
  outer loop
    vertex 7.582625702300753 10.950221747701688 15.875
    vertex 6.35 1.5875 15.875
    vertex 7.582625702300756 1.7497782522983125 15.875
  endloop
endfacet
facet normal 0.0 0.0 1.0
  outer loop
    vertex 7.582625702300753 10.950221747701688 15.875
    vertex 7.582625702300756 1.7497782522983125 15.875
    vertex 8.731249999999998 10.47444598552339 15.875
  endloop
endfacet
facet normal 0.0 0.0 1.0
  outer loop
    vertex 8.731249999999998 10.47444598552339 15.875
    vertex 7.582625702300756 1.7497782522983125 15.875
    vertex 8.73125 2.225554014476611 15.875
  endloop
endfacet
facet normal 0.0 0.0 1.0
  outer loop
    vertex 8.731249999999998 10.47444598552339 15.875
    vertex 8.73125 2.225554014476611 15.875
    vertex 9.717596045400931 9.717596045400933 15.875
  endloop
endfacet
facet normal 0.0 0.0 1.0
  outer loop
    vertex 9.717596045400931 9.717596045400933 15.875
    vertex 8.73125 2.225554014476611 15.875
    vertex 9.717596045400933 2.9824039545990675 15.875
  endloop
endfacet
facet normal 0.0 0.0 1.0
  outer loop
    vertex 9.717596045400931 9.717596045400933 15.875
    vertex 9.717596045400933 2.9824039545990675 15.875
    vertex 10.474445985523387 8.731250000000003 15.875
  endloop
endfacet
facet normal 0.0 0.0 1.0
  outer loop
    vertex 10.474445985523387 8.731250000000003 15.875
    vertex 9.717596045400933 2.9824039545990675 15.875
    vertex 10.474445985523388 3.96875 15.875
  endloop
endfacet
facet normal 0.0 0.0 1.0
  outer loop
    vertex 10.474445985523387 8.731250000000003 15.875
    vertex 10.474445985523388 3.96875 15.875
    vertex 10.950221747701686 7.582625702300759 15.875
  endloop
endfacet
facet normal 0.0 0.0 1.0
  outer loop
    vertex 10.950221747701686 7.582625702300759 15.875
    vertex 10.474445985523388 3.96875 15.875
    vertex 10.950221747701688 5.117374297699245 15.875
  endloop
endfacet
facet normal 0.0 0.0 1.0
  outer loop
    vertex 10.950221747701686 7.582625702300759 15.875
    vertex 10.950221747701688 5.117374297699245 15.875
    vertex 11.112499999999999 6.35 15.875
  endloop
endfacet
facet normal 0.9914448613738105 -0.13052619222005138 0.0
  outer loop
    vertex 11.112499999999999 6.35 12.7
    vertex 10.950221747701688 5.117374297699245 15.875
    vertex 10.950221747701688 5.117374297699245 12.7
  endloop
endfacet
facet normal 0.9914448613738105 -0.13052619222005138 0.0
  outer loop
    vertex 10.950221747701688 5.117374297699245 15.875
    vertex 11.112499999999999 6.35 12.7
    vertex 11.112499999999999 6.35 15.875
  endloop
endfacet
facet normal 0.9914448613738104 0.13052619222005205 0.0
  outer loop
    vertex 10.950221747701686 7.582625702300759 12.7
    vertex 11.112499999999999 6.35 15.875
    vertex 11.112499999999999 6.35 12.7
  endloop
endfacet
facet normal 0.9914448613738104 0.13052619222005205 0.0
  outer loop
    vertex 11.112499999999999 6.35 15.875
    vertex 10.950221747701686 7.582625702300759 12.7
    vertex 10.950221747701686 7.582625702300759 15.875
  endloop
endfacet
facet normal 0.9238795325112867 0.38268343236509034 0.0
  outer loop
    vertex 10.474445985523387 8.731250000000003 12.7
    vertex 10.950221747701686 7.582625702300759 15.875
    vertex 10.950221747701686 7.582625702300759 12.7
  endloop
endfacet
facet normal 0.9238795325112867 0.38268343236509034 0.0
  outer loop
    vertex 10.950221747701686 7.582625702300759 15.875
    vertex 10.474445985523387 8.731250000000003 12.7
    vertex 10.474445985523387 8.731250000000003 15.875
  endloop
endfacet
facet normal 0.7933533402912346 0.6087614290087214 0.0
  outer loop
    vertex 9.717596045400931 9.717596045400933 12.7
    vertex 10.474445985523387 8.731250000000003 15.875
    vertex 10.474445985523387 8.731250000000003 12.7
  endloop
endfacet
facet normal 0.7933533402912346 0.6087614290087214 0.0
  outer loop
    vertex 10.474445985523387 8.731250000000003 15.875
    vertex 9.717596045400931 9.717596045400933 12.7
    vertex 9.717596045400931 9.717596045400933 15.875
  endloop
endfacet
facet normal 0.6087614290087204 0.7933533402912353 0.0
  outer loop
    vertex 8.731249999999998 10.47444598552339 15.875
    vertex 9.717596045400931 9.717596045400933 12.7
    vertex 8.731249999999998 10.47444598552339 12.7
  endloop
endfacet
facet normal 0.6087614290087204 0.7933533402912353 0.0
  outer loop
    vertex 9.717596045400931 9.717596045400933 12.7
    vertex 8.731249999999998 10.47444598552339 15.875
    vertex 9.717596045400931 9.717596045400933 15.875
  endloop
endfacet
facet normal 0.3826834323650893 0.923879532511287 0.0
  outer loop
    vertex 7.582625702300753 10.950221747701688 15.875
    vertex 8.731249999999998 10.47444598552339 12.7
    vertex 7.582625702300753 10.950221747701688 12.7
  endloop
endfacet
facet normal 0.3826834323650893 0.923879532511287 0.0
  outer loop
    vertex 8.731249999999998 10.47444598552339 12.7
    vertex 7.582625702300753 10.950221747701688 15.875
    vertex 8.731249999999998 10.47444598552339 15.875
  endloop
endfacet
facet normal 0.13052619222005146 0.9914448613738106 0.0
  outer loop
    vertex 6.349999999999999 11.112499999999999 15.875
    vertex 7.582625702300753 10.950221747701688 12.7
    vertex 6.349999999999999 11.112499999999999 12.7
  endloop
endfacet
facet normal 0.13052619222005146 0.9914448613738106 0.0
  outer loop
    vertex 7.582625702300753 10.950221747701688 12.7
    vertex 6.349999999999999 11.112499999999999 15.875
    vertex 7.582625702300753 10.950221747701688 15.875
  endloop
endfacet
facet normal -0.1305261922200522 0.9914448613738105 0.0
  outer loop
    vertex 5.117374297699241 10.950221747701686 15.875
    vertex 6.349999999999999 11.112499999999999 12.7
    vertex 5.117374297699241 10.950221747701686 12.7
  endloop
endfacet
facet normal -0.1305261922200522 0.9914448613738105 0.0
  outer loop
    vertex 6.349999999999999 11.112499999999999 12.7
    vertex 5.117374297699241 10.950221747701686 15.875
    vertex 6.349999999999999 11.112499999999999 15.875
  endloop
endfacet
facet normal -0.38268343236509034 0.9238795325112867 0.0
  outer loop
    vertex 3.968749999999998 10.474445985523387 15.875
    vertex 5.117374297699241 10.950221747701686 12.7
    vertex 3.968749999999998 10.474445985523387 12.7
  endloop
endfacet
facet normal -0.38268343236509034 0.9238795325112867 0.0
  outer loop
    vertex 5.117374297699241 10.950221747701686 12.7
    vertex 3.968749999999998 10.474445985523387 15.875
    vertex 5.117374297699241 10.950221747701686 15.875
  endloop
endfacet
facet normal -0.6087614290087207 0.7933533402912352 0.0
  outer loop
    vertex 2.9824039545990653 9.717596045400931 15.875
    vertex 3.968749999999998 10.474445985523387 12.7
    vertex 2.9824039545990653 9.717596045400931 12.7
  endloop
endfacet
facet normal -0.6087614290087207 0.7933533402912352 0.0
  outer loop
    vertex 3.968749999999998 10.474445985523387 12.7
    vertex 2.9824039545990653 9.717596045400931 15.875
    vertex 3.968749999999998 10.474445985523387 15.875
  endloop
endfacet
facet normal -0.7933533402912358 0.60876142900872 0.0
  outer loop
    vertex 2.9824039545990653 9.717596045400931 15.875
    vertex 2.22555401447661 8.731249999999998 12.7
    vertex 2.22555401447661 8.731249999999998 15.875
  endloop
endfacet
facet normal -0.7933533402912358 0.60876142900872 0.0
  outer loop
    vertex 2.22555401447661 8.731249999999998 12.7
    vertex 2.9824039545990653 9.717596045400931 15.875
    vertex 2.9824039545990653 9.717596045400931 12.7
  endloop
endfacet
facet normal -0.923879532511287 0.3826834323650894 0.0
  outer loop
    vertex 2.22555401447661 8.731249999999998 15.875
    vertex 1.7497782522983119 7.582625702300753 12.7
    vertex 1.7497782522983119 7.582625702300753 15.875
  endloop
endfacet
facet normal -0.923879532511287 0.3826834323650894 0.0
  outer loop
    vertex 1.7497782522983119 7.582625702300753 12.7
    vertex 2.22555401447661 8.731249999999998 15.875
    vertex 2.22555401447661 8.731249999999998 12.7
  endloop
endfacet
facet normal -0.9914448613738106 0.13052619222005146 0.0
  outer loop
    vertex 1.7497782522983119 7.582625702300753 15.875
    vertex 1.5875 6.349999999999999 12.7
    vertex 1.5875 6.349999999999999 15.875
  endloop
endfacet
facet normal -0.9914448613738106 0.13052619222005146 0.0
  outer loop
    vertex 1.5875 6.349999999999999 12.7
    vertex 1.7497782522983119 7.582625702300753 15.875
    vertex 1.7497782522983119 7.582625702300753 12.7
  endloop
endfacet
facet normal -0.9914448613738104 -0.13052619222005185 -0.0
  outer loop
    vertex 1.5875 6.349999999999999 15.875
    vertex 1.7497782522983125 5.117374297699243 12.7
    vertex 1.7497782522983125 5.117374297699243 15.875
  endloop
endfacet
facet normal -0.9914448613738104 -0.13052619222005185 -0.0
  outer loop
    vertex 1.7497782522983125 5.117374297699243 12.7
    vertex 1.5875 6.349999999999999 15.875
    vertex 1.5875 6.349999999999999 12.7
  endloop
endfacet
facet normal -0.9238795325112868 -0.38268343236508995 -0.0
  outer loop
    vertex 1.7497782522983125 5.117374297699243 15.875
    vertex 2.2255540144766113 3.9687499999999982 12.7
    vertex 2.2255540144766113 3.9687499999999982 15.875
  endloop
endfacet
facet normal -0.9238795325112868 -0.38268343236508995 -0.0
  outer loop
    vertex 2.2255540144766113 3.9687499999999982 12.7
    vertex 1.7497782522983125 5.117374297699243 15.875
    vertex 1.7497782522983125 5.117374297699243 12.7
  endloop
endfacet
facet normal -0.7933533402912352 -0.6087614290087209 -0.0
  outer loop
    vertex 2.2255540144766113 3.9687499999999982 15.875
    vertex 2.9824039545990675 2.982403954599067 12.7
    vertex 2.9824039545990675 2.982403954599067 15.875
  endloop
endfacet
facet normal -0.7933533402912352 -0.6087614290087209 -0.0
  outer loop
    vertex 2.9824039545990675 2.982403954599067 12.7
    vertex 2.2255540144766113 3.9687499999999982 15.875
    vertex 2.2255540144766113 3.9687499999999982 12.7
  endloop
endfacet
facet normal -0.6087614290087204 -0.7933533402912354 -0.0
  outer loop
    vertex 3.9687500000000013 2.22555401447661 15.875
    vertex 2.9824039545990675 2.982403954599067 12.7
    vertex 3.9687500000000013 2.22555401447661 12.7
  endloop
endfacet
facet normal -0.6087614290087204 -0.7933533402912354 -0.0
  outer loop
    vertex 2.9824039545990675 2.982403954599067 12.7
    vertex 3.9687500000000013 2.22555401447661 15.875
    vertex 2.9824039545990675 2.982403954599067 15.875
  endloop
endfacet
facet normal -0.3826834323650896 -0.9238795325112868 -0.0
  outer loop
    vertex 5.117374297699246 1.7497782522983119 15.875
    vertex 3.9687500000000013 2.22555401447661 12.7
    vertex 5.117374297699246 1.7497782522983119 12.7
  endloop
endfacet
facet normal -0.3826834323650896 -0.9238795325112868 -0.0
  outer loop
    vertex 3.9687500000000013 2.22555401447661 12.7
    vertex 5.117374297699246 1.7497782522983119 15.875
    vertex 3.9687500000000013 2.22555401447661 15.875
  endloop
endfacet
facet normal -0.13052619222005146 -0.9914448613738106 -0.0
  outer loop
    vertex 6.35 1.5875 15.875
    vertex 5.117374297699246 1.7497782522983119 12.7
    vertex 6.35 1.5875 12.7
  endloop
endfacet
facet normal -0.13052619222005146 -0.9914448613738106 -0.0
  outer loop
    vertex 5.117374297699246 1.7497782522983119 12.7
    vertex 6.35 1.5875 15.875
    vertex 5.117374297699246 1.7497782522983119 15.875
  endloop
endfacet
facet normal 0.13052619222005177 -0.9914448613738104 0.0
  outer loop
    vertex 7.582625702300756 1.7497782522983125 15.875
    vertex 6.35 1.5875 12.7
    vertex 7.582625702300756 1.7497782522983125 12.7
  endloop
endfacet
facet normal 0.13052619222005177 -0.9914448613738104 0.0
  outer loop
    vertex 6.35 1.5875 12.7
    vertex 7.582625702300756 1.7497782522983125 15.875
    vertex 6.35 1.5875 15.875
  endloop
endfacet
facet normal 0.3826834323650898 -0.9238795325112868 0.0
  outer loop
    vertex 8.73125 2.225554014476611 15.875
    vertex 7.582625702300756 1.7497782522983125 12.7
    vertex 8.73125 2.225554014476611 12.7
  endloop
endfacet
facet normal 0.3826834323650898 -0.9238795325112868 0.0
  outer loop
    vertex 7.582625702300756 1.7497782522983125 12.7
    vertex 8.73125 2.225554014476611 15.875
    vertex 7.582625702300756 1.7497782522983125 15.875
  endloop
endfacet
facet normal 0.6087614290087208 -0.7933533402912353 0.0
  outer loop
    vertex 9.717596045400933 2.9824039545990675 15.875
    vertex 8.73125 2.225554014476611 12.7
    vertex 9.717596045400933 2.9824039545990675 12.7
  endloop
endfacet
facet normal 0.6087614290087208 -0.7933533402912353 0.0
  outer loop
    vertex 8.73125 2.225554014476611 12.7
    vertex 9.717596045400933 2.9824039545990675 15.875
    vertex 8.73125 2.225554014476611 15.875
  endloop
endfacet
facet normal 0.7933533402912352 -0.6087614290087207 0.0
  outer loop
    vertex 10.474445985523388 3.96875 12.7
    vertex 9.717596045400933 2.9824039545990675 15.875
    vertex 9.717596045400933 2.9824039545990675 12.7
  endloop
endfacet
facet normal 0.7933533402912352 -0.6087614290087207 0.0
  outer loop
    vertex 9.717596045400933 2.9824039545990675 15.875
    vertex 10.474445985523388 3.96875 12.7
    vertex 10.474445985523388 3.96875 15.875
  endloop
endfacet
facet normal 0.9238795325112868 -0.38268343236508995 0.0
  outer loop
    vertex 10.950221747701688 5.117374297699245 12.7
    vertex 10.474445985523388 3.96875 15.875
    vertex 10.474445985523388 3.96875 12.7
  endloop
endfacet
facet normal 0.9238795325112868 -0.38268343236508995 0.0
  outer loop
    vertex 10.474445985523388 3.96875 15.875
    vertex 10.950221747701688 5.117374297699245 12.7
    vertex 10.950221747701688 5.117374297699245 15.875
  endloop
endfacet
facet normal 0.5773502691896258 0.5773502691896258 -0.5773502691896258
  outer loop
    vertex 12.7 12.7 1.5875
    vertex 12.7 11.112499999999999 0.0
    vertex 11.112499999999999 12.7 0.0
  endloop
endfacet
facet normal 1.0 -0.0 -0.0
  outer loop
    vertex 12.7 1.5875 0.0
    vertex 12.7 3.2071561843937437 5.8992697583858895
    vertex 12.7 3.1975884197796463 6.728055854196992
  endloop
endfacet
facet normal 1.0 -0.0 -0.0
  outer loop
    vertex 12.7 3.2071561843937437 5.8992697583858895
    vertex 12.7 1.5875 0.0
    vertex 12.7 3.430903561246432 5.1012001836738445
  endloop
endfacet
facet normal 1.0 -0.0 -0.0
  outer loop
    vertex 12.7 3.430903561246432 5.1012001836738445
    vertex 12.7 1.5875 0.0
    vertex 12.7 3.853582536365222 4.388234252705154
  endloop
endfacet
facet normal 1.0 -0.0 -0.0
  outer loop
    vertex 12.7 3.853582536365222 4.388234252705154
    vertex 12.7 1.5875 0.0
    vertex 12.7 4.446388236105801 3.8089594154434248
  endloop
endfacet
facet normal 1.0 -0.0 -0.0
  outer loop
    vertex 12.7 4.446388236105801 3.8089594154434248
    vertex 12.7 1.5875 0.0
    vertex 12.7 11.112499999999999 0.0
  endloop
endfacet
facet normal 1.0 -0.0 -0.0
  outer loop
    vertex 12.7 4.446388236105801 3.8089594154434248
    vertex 12.7 11.112499999999999 0.0
    vertex 12.7 5.1689219316885895 3.4028522947511113
  endloop
endfacet
facet normal 1.0 -0.0 -0.0
  outer loop
    vertex 12.7 5.1689219316885895 3.4028522947511113
    vertex 12.7 11.112499999999999 0.0
    vertex 12.7 5.971944145803007 3.1975884197796463
  endloop
endfacet
facet normal 1.0 -0.0 -0.0
  outer loop
    vertex 12.7 5.971944145803007 3.1975884197796463
    vertex 12.7 11.112499999999999 0.0
    vertex 12.7 6.80073024161411 3.2071561843937437
  endloop
endfacet
facet normal 1.0 -0.0 -0.0
  outer loop
    vertex 12.7 6.80073024161411 3.2071561843937437
    vertex 12.7 11.112499999999999 0.0
    vertex 12.7 7.598799816326155 3.430903561246432
  endloop
endfacet
facet normal 1.0 -0.0 -0.0
  outer loop
    vertex 12.7 7.598799816326155 3.430903561246432
    vertex 12.7 11.112499999999999 0.0
    vertex 12.7 8.311765747294846 3.853582536365221
  endloop
endfacet
facet normal 1.0 -0.0 -0.0
  outer loop
    vertex 12.7 8.311765747294846 3.853582536365221
    vertex 12.7 11.112499999999999 0.0
    vertex 12.7 8.891040584556574 4.446388236105801
  endloop
endfacet
facet normal 1.0 -0.0 -0.0
  outer loop
    vertex 12.7 8.891040584556574 4.446388236105801
    vertex 12.7 11.112499999999999 0.0
    vertex 12.7 9.29714770524889 5.168921931688591
  endloop
endfacet
facet normal 1.0 -0.0 -0.0
  outer loop
    vertex 12.7 9.29714770524889 5.168921931688591
    vertex 12.7 11.112499999999999 0.0
    vertex 12.7 9.502411580220352 5.971944145803008
  endloop
endfacet
facet normal 1.0 -0.0 -0.0
  outer loop
    vertex 12.7 1.5875 0.0
    vertex 12.7 0.0 12.7
    vertex 12.7 0.0 1.5875
  endloop
endfacet
facet normal 1.0 -0.0 -0.0
  outer loop
    vertex 12.7 0.0 12.7
    vertex 12.7 1.5875 0.0
    vertex 12.7 3.1975884197796463 6.728055854196992
  endloop
endfacet
facet normal 1.0 -0.0 -0.0
  outer loop
    vertex 12.7 0.0 12.7
    vertex 12.7 3.1975884197796463 6.728055854196992
    vertex 12.7 3.402852294751111 7.531078068311409
  endloop
endfacet
facet normal 1.0 -0.0 -0.0
  outer loop
    vertex 12.7 0.0 12.7
    vertex 12.7 3.402852294751111 7.531078068311409
    vertex 12.7 3.8089594154434248 8.253611763894199
  endloop
endfacet
facet normal 1.0 -0.0 -0.0
  outer loop
    vertex 12.7 0.0 12.7
    vertex 12.7 3.8089594154434248 8.253611763894199
    vertex 12.7 4.388234252705153 8.846417463634777
  endloop
endfacet
facet normal 1.0 -0.0 -0.0
  outer loop
    vertex 12.7 0.0 12.7
    vertex 12.7 4.388234252705153 8.846417463634777
    vertex 12.7 5.1012001836738445 9.269096438753566
  endloop
endfacet
facet normal 1.0 -0.0 -0.0
  outer loop
    vertex 12.7 0.0 12.7
    vertex 12.7 5.1012001836738445 9.269096438753566
    vertex 12.7 12.7 12.7
  endloop
endfacet
facet normal 1.0 -0.0 -0.0
  outer loop
    vertex 12.7 12.7 12.7
    vertex 12.7 5.1012001836738445 9.269096438753566
    vertex 12.7 5.899269758385888 9.492843815606255
  endloop
endfacet
facet normal 1.0 -0.0 -0.0
  outer loop
    vertex 12.7 12.7 12.7
    vertex 12.7 5.899269758385888 9.492843815606255
    vertex 12.7 6.728055854196992 9.502411580220352
  endloop
endfacet
facet normal 1.0 -0.0 -0.0
  outer loop
    vertex 12.7 12.7 12.7
    vertex 12.7 6.728055854196992 9.502411580220352
    vertex 12.7 7.531078068311409 9.29714770524889
  endloop
endfacet
facet normal 1.0 -0.0 -0.0
  outer loop
    vertex 12.7 12.7 12.7
    vertex 12.7 7.531078068311409 9.29714770524889
    vertex 12.7 8.253611763894199 8.891040584556574
  endloop
endfacet
facet normal 1.0 -0.0 -0.0
  outer loop
    vertex 12.7 12.7 12.7
    vertex 12.7 8.253611763894199 8.891040584556574
    vertex 12.7 8.846417463634777 8.311765747294846
  endloop
endfacet
facet normal 1.0 -0.0 -0.0
  outer loop
    vertex 12.7 12.7 12.7
    vertex 12.7 8.846417463634777 8.311765747294846
    vertex 12.7 9.269096438753566 7.598799816326156
  endloop
endfacet
facet normal 1.0 -0.0 -0.0
  outer loop
    vertex 12.7 12.7 12.7
    vertex 12.7 9.269096438753566 7.598799816326156
    vertex 12.7 9.492843815606257 6.80073024161411
  endloop
endfacet
facet normal 1.0 -0.0 -0.0
  outer loop
    vertex 12.7 12.7 12.7
    vertex 12.7 9.492843815606257 6.80073024161411
    vertex 12.7 9.502411580220352 5.971944145803008
  endloop
endfacet
facet normal 1.0 -0.0 -0.0
  outer loop
    vertex 12.7 12.7 12.7
    vertex 12.7 9.502411580220352 5.971944145803008
    vertex 12.7 11.112499999999999 0.0
  endloop
endfacet
facet normal 1.0 -0.0 -0.0
  outer loop
    vertex 12.7 12.7 12.7
    vertex 12.7 11.112499999999999 0.0
    vertex 12.7 12.7 1.5875
  endloop
endfacet
facet normal 0.5773502691896258 -0.5773502691896258 -0.5773502691896258
  outer loop
    vertex 12.7 1.5875 0.0
    vertex 12.7 0.0 1.5875
    vertex 11.112499999999999 0.0 0.0
  endloop
endfacet
facet normal 0.0 -1.0 0.0
  outer loop
    vertex 12.7 0.0 1.5875
    vertex 1.5875 0.0 0.0
    vertex 11.112499999999999 0.0 0.0
  endloop
endfacet
facet normal 0.0 -1.0 0.0
  outer loop
    vertex 1.5875 0.0 0.0
    vertex 12.7 0.0 1.5875
    vertex 0.0 0.0 1.5875
  endloop
endfacet
facet normal 0.0 -1.0 0.0
  outer loop
    vertex 0.0 0.0 1.5875
    vertex 12.7 0.0 1.5875
    vertex 12.7 0.0 12.7
  endloop
endfacet
facet normal 0.0 -1.0 0.0
  outer loop
    vertex 0.0 0.0 1.5875
    vertex 12.7 0.0 12.7
    vertex 0.0 0.0 12.7
  endloop
endfacet
facet normal -0.5773502691896258 -0.5773502691896258 -0.5773502691896258
  outer loop
    vertex 0.0 1.5875 0.0
    vertex 1.5875 0.0 0.0
    vertex 0.0 0.0 1.5875
  endloop
endfacet
facet normal -0.0 1.0 -0.0
  outer loop
    vertex 0.0 12.7 1.5875
    vertex 11.112499999999999 12.7 0.0
    vertex 1.5875 12.7 0.0
  endloop
endfacet
facet normal -0.0 1.0 -0.0
  outer loop
    vertex 11.112499999999999 12.7 0.0
    vertex 0.0 12.7 1.5875
    vertex 12.7 12.7 1.5875
  endloop
endfacet
facet normal -0.0 1.0 -0.0
  outer loop
    vertex 12.7 12.7 1.5875
    vertex 0.0 12.7 1.5875
    vertex 0.0 12.7 12.7
  endloop
endfacet
facet normal -0.0 1.0 -0.0
  outer loop
    vertex 12.7 12.7 1.5875
    vertex 0.0 12.7 12.7
    vertex 12.7 12.7 12.7
  endloop
endfacet
facet normal 0.0 0.0 -1.0
  outer loop
    vertex 1.5875 12.7 0.0
    vertex 0.0 1.5875 0.0
    vertex 0.0 11.112499999999999 0.0
  endloop
endfacet
facet normal 0.0 0.0 -1.0
  outer loop
    vertex 0.0 1.5875 0.0
    vertex 1.5875 12.7 0.0
    vertex 1.5875 0.0 0.0
  endloop
endfacet
facet normal 0.0 0.0 -1.0
  outer loop
    vertex 1.5875 0.0 0.0
    vertex 1.5875 12.7 0.0
    vertex 4.975184671492204 7.14375 0.0
  endloop
endfacet
facet normal 0.0 0.0 -1.0
  outer loop
    vertex 4.975184671492204 7.14375 0.0
    vertex 1.5875 12.7 0.0
    vertex 5.227467984866355 7.472532015133645 0.0
  endloop
endfacet
facet normal 0.0 0.0 -1.0
  outer loop
    vertex 5.227467984866355 7.472532015133645 0.0
    vertex 1.5875 12.7 0.0
    vertex 11.112499999999999 12.7 0.0
  endloop
endfacet
facet normal 0.0 0.0 -1.0
  outer loop
    vertex 1.5875 0.0 0.0
    vertex 4.975184671492204 7.14375 0.0
    vertex 4.816592750766104 6.760875234100252 0.0
  endloop
endfacet
facet normal 0.0 0.0 -1.0
  outer loop
    vertex 1.5875 0.0 0.0
    vertex 4.816592750766104 6.760875234100252 0.0
    vertex 4.762499999999999 6.35 0.0
  endloop
endfacet
facet normal 0.0 0.0 -1.0
  outer loop
    vertex 5.227467984866355 7.472532015133645 0.0
    vertex 11.112499999999999 12.7 0.0
    vertex 5.5562499999999995 7.724815328507796 0.0
  endloop
endfacet
facet normal 0.0 0.0 -1.0
  outer loop
    vertex 5.5562499999999995 7.724815328507796 0.0
    vertex 11.112499999999999 12.7 0.0
    vertex 5.939124765899748 7.883407249233896 0.0
  endloop
endfacet
facet normal 0.0 0.0 -1.0
  outer loop
    vertex 5.939124765899748 7.883407249233896 0.0
    vertex 11.112499999999999 12.7 0.0
    vertex 6.35 7.9375 0.0
  endloop
endfacet
facet normal 0.0 0.0 -1.0
  outer loop
    vertex 6.35 7.9375 0.0
    vertex 11.112499999999999 12.7 0.0
    vertex 6.7608752341002525 7.883407249233895 0.0
  endloop
endfacet
facet normal 0.0 0.0 -1.0
  outer loop
    vertex 6.7608752341002525 7.883407249233895 0.0
    vertex 11.112499999999999 12.7 0.0
    vertex 7.14375 7.724815328507796 0.0
  endloop
endfacet
facet normal 0.0 0.0 -1.0
  outer loop
    vertex 7.14375 7.724815328507796 0.0
    vertex 11.112499999999999 12.7 0.0
    vertex 7.472532015133645 7.472532015133645 0.0
  endloop
endfacet
facet normal 0.0 0.0 -1.0
  outer loop
    vertex 7.472532015133645 7.472532015133645 0.0
    vertex 11.112499999999999 12.7 0.0
    vertex 7.7248153285077965 7.143749999999998 0.0
  endloop
endfacet
facet normal 0.0 0.0 -1.0
  outer loop
    vertex 7.7248153285077965 7.143749999999998 0.0
    vertex 11.112499999999999 12.7 0.0
    vertex 7.883407249233896 6.76087523410025 0.0
  endloop
endfacet
facet normal 0.0 0.0 -1.0
  outer loop
    vertex 7.883407249233896 6.76087523410025 0.0
    vertex 11.112499999999999 12.7 0.0
    vertex 7.9375 6.35 0.0
  endloop
endfacet
facet normal 0.0 0.0 -1.0
  outer loop
    vertex 1.5875 0.0 0.0
    vertex 5.227467984866355 5.227467984866355 0.0
    vertex 11.112499999999999 0.0 0.0
  endloop
endfacet
facet normal 0.0 0.0 -1.0
  outer loop
    vertex 5.227467984866355 5.227467984866355 0.0
    vertex 1.5875 0.0 0.0
    vertex 4.975184671492203 5.5562499999999995 0.0
  endloop
endfacet
facet normal 0.0 0.0 -1.0
  outer loop
    vertex 4.975184671492203 5.5562499999999995 0.0
    vertex 1.5875 0.0 0.0
    vertex 4.816592750766104 5.939124765899748 0.0
  endloop
endfacet
facet normal 0.0 0.0 -1.0
  outer loop
    vertex 4.816592750766104 5.939124765899748 0.0
    vertex 1.5875 0.0 0.0
    vertex 4.762499999999999 6.35 0.0
  endloop
endfacet
facet normal 0.0 0.0 -1.0
  outer loop
    vertex 11.112499999999999 0.0 0.0
    vertex 5.227467984866355 5.227467984866355 0.0
    vertex 5.556249999999999 4.975184671492204 0.0
  endloop
endfacet
facet normal 0.0 0.0 -1.0
  outer loop
    vertex 11.112499999999999 0.0 0.0
    vertex 5.556249999999999 4.975184671492204 0.0
    vertex 5.939124765899748 4.816592750766104 0.0
  endloop
endfacet
facet normal 0.0 0.0 -1.0
  outer loop
    vertex 11.112499999999999 0.0 0.0
    vertex 5.939124765899748 4.816592750766104 0.0
    vertex 6.35 4.762499999999999 0.0
  endloop
endfacet
facet normal 0.0 0.0 -1.0
  outer loop
    vertex 11.112499999999999 0.0 0.0
    vertex 6.35 4.762499999999999 0.0
    vertex 6.760875234100252 4.8165927507661035 0.0
  endloop
endfacet
facet normal 0.0 0.0 -1.0
  outer loop
    vertex 11.112499999999999 0.0 0.0
    vertex 6.760875234100252 4.8165927507661035 0.0
    vertex 7.14375 4.975184671492203 0.0
  endloop
endfacet
facet normal 0.0 0.0 -1.0
  outer loop
    vertex 11.112499999999999 0.0 0.0
    vertex 7.14375 4.975184671492203 0.0
    vertex 7.472532015133643 5.2274679848663546 0.0
  endloop
endfacet
facet normal 0.0 0.0 -1.0
  outer loop
    vertex 11.112499999999999 0.0 0.0
    vertex 7.472532015133643 5.2274679848663546 0.0
    vertex 7.724815328507796 5.556249999999999 0.0
  endloop
endfacet
facet normal 0.0 0.0 -1.0
  outer loop
    vertex 11.112499999999999 0.0 0.0
    vertex 7.724815328507796 5.556249999999999 0.0
    vertex 7.883407249233895 5.939124765899747 0.0
  endloop
endfacet
facet normal 0.0 0.0 -1.0
  outer loop
    vertex 11.112499999999999 0.0 0.0
    vertex 7.883407249233895 5.939124765899747 0.0
    vertex 7.9375 6.35 0.0
  endloop
endfacet
facet normal 0.0 0.0 -1.0
  outer loop
    vertex 11.112499999999999 0.0 0.0
    vertex 7.9375 6.35 0.0
    vertex 11.112499999999999 12.7 0.0
  endloop
endfacet
facet normal 0.0 0.0 -1.0
  outer loop
    vertex 11.112499999999999 0.0 0.0
    vertex 11.112499999999999 12.7 0.0
    vertex 12.7 11.112499999999999 0.0
  endloop
endfacet
facet normal 0.0 0.0 -1.0
  outer loop
    vertex 11.112499999999999 0.0 0.0
    vertex 12.7 11.112499999999999 0.0
    vertex 12.7 1.5875 0.0
  endloop
endfacet
facet normal -1.0 0.0 0.0
  outer loop
    vertex 0.0 12.7 12.7
    vertex 0.0 0.0 1.5875
    vertex 0.0 0.0 12.7
  endloop
endfacet
facet normal -1.0 0.0 0.0
  outer loop
    vertex 0.0 0.0 1.5875
    vertex 0.0 12.7 12.7
    vertex 0.0 1.5875 0.0
  endloop
endfacet
facet normal -1.0 0.0 0.0
  outer loop
    vertex 0.0 1.5875 0.0
    vertex 0.0 12.7 12.7
    vertex 0.0 11.112499999999999 0.0
  endloop
endfacet
facet normal -1.0 0.0 0.0
  outer loop
    vertex 0.0 11.112499999999999 0.0
    vertex 0.0 12.7 12.7
    vertex 0.0 12.7 1.5875
  endloop
endfacet
facet normal -0.5773502691896258 0.5773502691896258 -0.5773502691896258
  outer loop
    vertex 1.5875 12.7 0.0
    vertex 0.0 11.112499999999999 0.0
    vertex 0.0 12.7 1.5875
  endloop
endfacet
endsolid Top Arm End
